<svg xmlns="http://www.w3.org/2000/svg" viewBox="0 0 100 100" width="100" height="100" role="img" aria-label="TotalFX">
<rect width="100" height="100" fill="#F6F7F9"/>
<g transform="translate(10.00 38.42) scale(0.3509)">
<path d="M180.198 29.7829H159.053C154.817 29.7829 151.193 32.8458 150.457 37.0517L147.5 53.9266H153.537C156.094 53.9266 158.286 52.0731 158.726 49.5333L160.142 41.3906C160.384 39.9816 161.597 38.9536 163.02 38.9536H172.562L180.198 29.7798V29.7829Z" fill="#000AFF"/>
<path d="M221.596 11.505H208.593L204.969 15.9649L210.021 25.6647L221.596 11.505Z" fill="#000AFF"/>
<path d="M192.43 11.505H158.802C156.564 11.505 154.647 13.1226 154.259 15.345C153.759 18.1902 155.933 20.7996 158.802 20.7996H184.167L189.768 32.7128L172.244 53.9206H184.692L195.59 40.8857L202.398 53.9206H214.412L198.723 23.6479L192.43 11.502V11.505Z" fill="#000AFF"/>
<path d="M41.0369 11.6985H6.40436V19.8049H19.398V53.6515H28.0433V19.8049H41.0369V11.6985Z" fill="#041E68"/>
<path d="M62.3089 23.7447C59.9346 22.3447 57.1478 21.6372 54.0245 21.6372C50.9012 21.6372 48.2054 22.3357 45.8402 23.7175C43.4719 25.0993 41.5918 27.0495 40.2455 29.5108C38.9021 31.969 38.2229 34.8475 38.2229 38.0677C38.2229 41.2878 38.89 44.1089 40.203 46.5641C41.5191 49.0284 43.387 50.9877 45.7553 52.3876C48.1205 53.7876 50.9042 54.4951 54.0245 54.4951C57.1448 54.4951 59.9043 53.7906 62.2786 52.3997C64.6529 51.0088 66.536 49.0556 67.8733 46.5913C69.2045 44.1331 69.8807 41.2667 69.8807 38.0646C69.8807 34.8626 69.2106 32.0234 67.8854 29.5682C66.5603 27.1039 64.6833 25.1477 62.3089 23.7447ZM59.1886 44.2026C58.0515 45.7568 56.3625 46.5157 54.0245 46.5157C51.6866 46.5157 50.0946 45.784 48.9393 44.2812C47.7718 42.7634 47.1805 40.674 47.1805 38.0646C47.1805 36.3654 47.4322 34.8566 47.9264 33.5836C48.4086 32.3409 49.1606 31.3552 50.1552 30.6597C51.1468 29.9643 52.4477 29.6136 54.0245 29.6136C56.3291 29.6136 58.009 30.3483 59.1644 31.8632C60.3318 33.3901 60.9231 35.4794 60.9231 38.0646C60.9231 40.6499 60.3379 42.6273 59.1856 44.2057L59.1886 44.2026Z" fill="#041E68"/>
<path d="M80.7062 14.0539H77.031V22.4778H71.8487V29.2205H77.031V40.3686C77.031 42.201 77.0492 43.8428 77.0886 45.2518C77.128 46.7455 77.5435 48.2301 78.3258 49.6724C79.1961 51.2295 80.4818 52.3725 82.1496 53.0709C83.778 53.7543 85.649 54.1232 87.711 54.1716C87.9263 54.1776 88.1416 54.1776 88.3538 54.1776C90.1914 54.1776 92.0806 53.9992 93.9788 53.6424L94.3245 53.5789V46.3978L93.8454 46.4613C92.0776 46.7001 90.4492 46.7757 88.9997 46.682C87.6473 46.5973 86.6951 46.0924 86.0917 45.1369C85.7763 44.641 85.6065 43.9547 85.5792 43.0899C85.5519 42.1496 85.5368 41.0883 85.5368 39.9151V29.2174H94.3245V27.2763C94.3245 24.6245 92.1685 22.4747 89.5091 22.4747H85.5368V18.8675C85.5368 16.2067 83.3747 14.0479 80.7032 14.0479L80.7062 14.0539Z" fill="#041E68"/>
<path d="M125.309 27.364C124.196 25.2595 122.532 23.7598 120.36 22.9011C118.235 22.0605 115.775 21.6372 113.049 21.6372C109.31 21.6372 106.308 22.4596 104.122 24.0803C101.936 25.701 100.426 27.8326 99.6342 30.4179L99.5129 30.817L107.233 33.2571L107.37 32.87C107.822 31.588 108.586 30.7202 109.705 30.2243C110.866 29.7073 111.991 29.4473 113.052 29.4473C114.957 29.4473 116.315 29.8313 117.091 30.5902C117.613 31.1012 117.965 31.842 118.135 32.8005L114.878 33.2843C112.91 33.5745 111.121 33.8829 109.559 34.2004C107.988 34.5209 106.612 34.8959 105.471 35.3131C103.792 35.93 102.433 36.707 101.429 37.6323C100.417 38.5635 99.6736 39.6521 99.2188 40.8706C98.773 42.071 98.5456 43.4165 98.5456 44.8648C98.5456 46.6155 98.958 48.2392 99.7676 49.6905C100.583 51.1479 101.793 52.3302 103.37 53.1949C104.938 54.0597 106.869 54.4981 109.11 54.4981C111.797 54.4981 114.056 54.0234 115.827 53.0861C116.94 52.4965 118.022 51.665 119.05 50.6007V53.6545H126.601V34.6993C126.601 33.3054 126.543 32.0264 126.431 30.8956C126.316 29.7254 125.937 28.5372 125.315 27.37L125.309 27.364ZM110.742 47.6375C109.92 47.6375 109.204 47.5165 108.622 47.2777C108.064 47.0479 107.628 46.7153 107.33 46.2889C107.033 45.8626 106.888 45.3577 106.888 44.7469C106.888 44.3145 106.982 43.9154 107.164 43.5677C107.352 43.2139 107.652 42.8783 108.058 42.5699C108.486 42.2494 109.065 41.9409 109.768 41.6597C110.405 41.4239 111.157 41.2032 112 41.0006C112.849 40.798 113.986 40.5682 115.384 40.3173C116.158 40.1782 117.079 40.0179 118.116 39.8425C118.101 40.2326 118.08 40.6559 118.053 41.1125C117.989 42.1496 117.771 43.0627 117.404 43.8337C117.216 44.2268 116.843 44.7318 116.3 45.3365C115.766 45.9321 115.029 46.4704 114.114 46.942C113.21 47.4047 112.076 47.6405 110.745 47.6405L110.742 47.6375Z" fill="#041E68"/>
<path d="M133.636 11.6985V53.9236H142.145V17.7972C142.145 14.4288 139.407 11.6985 136.029 11.6985H133.636Z" fill="#041E68"/>
</g>
</svg>
